%TF.GenerationSoftware,KiCad,Pcbnew,8.0.3*%
%TF.CreationDate,2024-10-04T12:44:18-05:00*%
%TF.ProjectId,Intro-Tutorial,496e7472-6f2d-4547-9574-6f7269616c2e,rev?*%
%TF.SameCoordinates,Original*%
%TF.FileFunction,Legend,Top*%
%TF.FilePolarity,Positive*%
%FSLAX46Y46*%
G04 Gerber Fmt 4.6, Leading zero omitted, Abs format (unit mm)*
G04 Created by KiCad (PCBNEW 8.0.3) date 2024-10-04 12:44:18*
%MOMM*%
%LPD*%
G01*
G04 APERTURE LIST*
%ADD10C,0.150000*%
%ADD11C,0.120000*%
G04 APERTURE END LIST*
D10*
X164833333Y-106274819D02*
X164500000Y-105798628D01*
X164261905Y-106274819D02*
X164261905Y-105274819D01*
X164261905Y-105274819D02*
X164642857Y-105274819D01*
X164642857Y-105274819D02*
X164738095Y-105322438D01*
X164738095Y-105322438D02*
X164785714Y-105370057D01*
X164785714Y-105370057D02*
X164833333Y-105465295D01*
X164833333Y-105465295D02*
X164833333Y-105608152D01*
X164833333Y-105608152D02*
X164785714Y-105703390D01*
X164785714Y-105703390D02*
X164738095Y-105751009D01*
X164738095Y-105751009D02*
X164642857Y-105798628D01*
X164642857Y-105798628D02*
X164261905Y-105798628D01*
X165785714Y-106274819D02*
X165214286Y-106274819D01*
X165500000Y-106274819D02*
X165500000Y-105274819D01*
X165500000Y-105274819D02*
X165404762Y-105417676D01*
X165404762Y-105417676D02*
X165309524Y-105512914D01*
X165309524Y-105512914D02*
X165214286Y-105560533D01*
X135261905Y-102634819D02*
X135261905Y-101634819D01*
X135261905Y-101634819D02*
X135500000Y-101634819D01*
X135500000Y-101634819D02*
X135642857Y-101682438D01*
X135642857Y-101682438D02*
X135738095Y-101777676D01*
X135738095Y-101777676D02*
X135785714Y-101872914D01*
X135785714Y-101872914D02*
X135833333Y-102063390D01*
X135833333Y-102063390D02*
X135833333Y-102206247D01*
X135833333Y-102206247D02*
X135785714Y-102396723D01*
X135785714Y-102396723D02*
X135738095Y-102491961D01*
X135738095Y-102491961D02*
X135642857Y-102587200D01*
X135642857Y-102587200D02*
X135500000Y-102634819D01*
X135500000Y-102634819D02*
X135261905Y-102634819D01*
X136785714Y-102634819D02*
X136214286Y-102634819D01*
X136500000Y-102634819D02*
X136500000Y-101634819D01*
X136500000Y-101634819D02*
X136404762Y-101777676D01*
X136404762Y-101777676D02*
X136309524Y-101872914D01*
X136309524Y-101872914D02*
X136214286Y-101920533D01*
D11*
%TO.C,R1*%
X165727064Y-104910000D02*
X164272936Y-104910000D01*
X165727064Y-103090000D02*
X164272936Y-103090000D01*
%TO.C,D1*%
X137600000Y-102865000D02*
X133715000Y-102865000D01*
X133715000Y-105135000D02*
X137600000Y-105135000D01*
X133715000Y-102865000D02*
X133715000Y-105135000D01*
%TD*%
M02*
